<svg viewBox="0 0 1024 1024" version="1.1" xmlns="http://www.w3.org/2000/svg" xmlns:xlink="http://www.w3.org/1999/xlink">
  <path fill="#2d8cf0" d="M512 73.136C269.632 73.136 73.136 269.616 73.136 512c0 242.368 196.48 438.864 438.864 438.864 242.368 0 438.864-196.48 438.864-438.864 0-242.368-196.48-438.864-438.864-438.864zM512 0c282.768 0 512 229.232 512 512 0 282.768-229.232 512-512 512C229.232 1024 0 794.768 0 512 0 229.232 229.232 0 512 0z m-36.576 512a36.576 36.576 0 0 1 73.152 0v219.424a36.576 36.576 0 0 1-73.152 0V512z m0-204.8a36.576 36.576 0 0 1 73.152 0v43.904a36.576 36.576 0 0 1-73.152 0v-43.92z"></path>
</svg>