<svg viewBox="0 0 1024 1024" version="1.1" xmlns="http://www.w3.org/2000/svg" xmlns:xlink="http://www.w3.org/1999/xlink">
  <path fill="#52c41a" d="M725.7088 330.285511a9.102222 9.102222 0 0 1 7.315911 14.518045l-240.685511 333.710222a36.352 36.352 0 0 1-59.0848 0L290.861511 481.029689a9.170489 9.170489 0 0 1 7.429689-14.518045h53.589333c11.776 0 22.755556 5.711644 29.604978 15.200712l81.373867 112.913066 179.655111-249.1392a36.408889 36.408889 0 0 1 29.604978-15.200711h53.589333zM512 0c282.737778 0 512 229.262222 512 512S794.737778 1024 512 1024 0 794.737778 0 512 229.262222 0 512 0z m0 937.142044c234.746311 0 425.142044-190.395733 425.142044-425.142044C937.142044 277.253689 746.746311 86.857956 512 86.857956 277.253689 86.857956 86.857956 277.253689 86.857956 512c0 234.746311 190.395733 425.142044 425.142044 425.142044z"></path>
</svg>