<svg viewBox="0 0 1024 1024" version="1.1" xmlns="http://www.w3.org/2000/svg" xmlns:xlink="http://www.w3.org/1999/xlink">
  <path fill="#ff4d4f" d="M511.872 1022.592C229.632 1022.592 0 793.28 0 511.36S229.632 0.256 511.872 0.256s511.872 229.312 511.872 511.168-229.632 511.168-511.872 511.168z m0-948.928c-241.728 0-438.4 196.352-438.4 437.76 0 241.344 196.672 437.76 438.4 437.76 241.664 0 438.4-196.416 438.4-437.76 0-241.408-196.736-437.76-438.4-437.76z"></path>
  <path fill="#ff4d4f" d="M563.328 513.024l158.08-156.16a36.48 36.48 0 1 0-51.392-51.968L511.68 461.248l-155.84-156.16A36.544 36.544 0 0 0 304 356.672l155.712 155.904-156.928 155.072a36.48 36.48 0 1 0 51.392 51.904l157.184-155.2 158.464 158.72a36.416 36.416 0 0 0 51.648 0.064 36.48 36.48 0 0 0 0.128-51.584L563.328 513.024z"></path>
</svg>