<svg viewBox="0 0 1024 1024" version="1.1" xmlns="http://www.w3.org/2000/svg" xmlns:xlink="http://www.w3.org/1999/xlink">
  <path fill="#ff8f1f" d="M512.746242 0.144659c-281.175699 0-509.092848 227.917148-509.092847 509.090853 0 281.170711 227.916151 509.088857 509.092847 509.088857 281.168716 0 509.09185-227.918146 509.085864-509.088857 0-281.173704-227.917148-509.090852-509.085864-509.090853z m-0.711324 938.696929c-236.824168-0.03392-428.8319-192.040654-428.866818-428.86582 0.034918-236.892008 192.010725-428.864822 428.901736-428.898742 236.822173 0.03392 428.829905 192.040654 428.862827 428.86582-0.032922 236.890013-192.006734 428.864822-428.897745 428.898742z m0 0"></path>
  <path fill="#ff8f1f" d="M521.927616 593.485064h-17.936751c-19.226712 0-35.005546-15.782824-35.005545-35.00754V292.630717c0-19.220726 15.778833-34.99956 35.005545-34.999559h17.936751c19.221724 0 35.006543 15.778833 35.006543 34.999559v265.846807c0 19.223719-15.784819 35.007541-35.006543 35.00754zM471.141242 678.414017h83.634002v83.646972h-83.634002V678.414017z m0 0"></path>
</svg>