<svg viewBox="0 0 1024 1024" version="1.1" xmlns="http://www.w3.org/2000/svg" xmlns:xlink="http://www.w3.org/1999/xlink">
  <path fill="#2d8cf0" d="M512 0C230.4 0 0 230.4 0 512s230.4 512 512 512 512-230.4 512-512S793.6 0 512 0z m311.466667 823.466667c-38.4 38.4-89.6 72.533333-140.8 93.866666-55.466667 21.333333-110.933333 34.133333-170.666667 34.133334s-115.2-12.8-170.666667-34.133334c-51.2-21.333333-98.133333-55.466667-140.8-93.866666-38.4-42.666667-72.533333-89.6-93.866666-140.8-21.333333-55.466667-34.133333-110.933333-34.133334-170.666667s12.8-115.2 34.133334-170.666667C128 290.133333 162.133333 243.2 200.533333 200.533333 243.2 162.133333 290.133333 128 341.333333 106.666667c55.466667-21.333333 110.933333-34.133333 170.666667-34.133334s115.2 12.8 170.666667 34.133334c51.2 21.333333 98.133333 55.466667 140.8 93.866666 38.4 42.666667 72.533333 89.6 93.866666 140.8 21.333333 55.466667 34.133333 110.933333 34.133334 170.666667s-12.8 115.2-34.133334 170.666667c-21.333333 51.2-55.466667 98.133333-93.866666 140.8z m-315.733334-157.866667s-4.266667 0 0 0c-21.333333 0-38.4-21.333333-34.133333-38.4 4.266667-51.2 42.666667-89.6 81.066667-132.266667 64-64 64-85.333333 68.266666-106.666666 0-25.6-8.533333-51.2-25.6-68.266667-21.333333-21.333333-51.2-34.133333-81.066666-34.133333-59.733333 0-106.666667 46.933333-106.666667 106.666666 0 21.333333-17.066667 34.133333-34.133333 34.133334-21.333333 0-34.133333-17.066667-34.133334-34.133334-8.533333-51.2 8.533333-93.866667 42.666667-128S465.066667 213.333333 512 213.333333c51.2 0 98.133333 21.333333 132.266667 55.466667 34.133333 34.133333 46.933333 76.8 46.933333 123.733333-4.266667 46.933333-17.066667 81.066667-89.6 153.6-34.133333 34.133333-59.733333 64-59.733333 85.333334 0 17.066667-17.066667 34.133333-34.133334 34.133333zM460.8 768c0 17.066667 8.533333 29.866667 21.333333 38.4 12.8 8.533333 29.866667 8.533333 42.666667 0 12.8-8.533333 21.333333-21.333333 21.333333-38.4 0-25.6-21.333333-42.666667-42.666666-42.666667s-42.666667 21.333333-42.666667 42.666667z"></path>
</svg>